<svg width="1168" height="32" viewBox="0 0 1168 32" fill="none" xmlns="http://www.w3.org/2000/svg">
<path d="M7.476 0.879883L13.902 14.0679L20.412 0.879883H27.93L17.304 20.5359V30.6999H10.458V20.4519L0 0.879883H7.476Z" fill="#1B1F2B"/>
<path d="M36.8041 31.1199C34.2841 31.1199 32.1421 30.5879 30.3781 29.5239C28.6421 28.4599 27.3121 27.0599 26.3881 25.3239C25.4641 23.5879 25.0021 21.7119 25.0021 19.6959C25.0021 17.6519 25.4641 15.7619 26.3881 14.0259C27.3121 12.2899 28.6561 10.8899 30.4201 9.82588C32.1841 8.76188 34.3121 8.22988 36.8041 8.22988C39.2961 8.22988 41.4241 8.76188 43.1881 9.82588C44.9521 10.8899 46.2961 12.2899 47.2201 14.0259C48.1441 15.7619 48.6061 17.6519 48.6061 19.6959C48.6061 21.7119 48.1441 23.5879 47.2201 25.3239C46.2961 27.0599 44.9521 28.4599 43.1881 29.5239C41.4241 30.5879 39.2961 31.1199 36.8041 31.1199ZM31.8901 19.6959C31.8901 21.4039 32.3521 22.7899 33.2761 23.8539C34.2281 24.9179 35.4041 25.4499 36.8041 25.4499C38.1761 25.4499 39.3241 24.9179 40.2481 23.8539C41.2001 22.7899 41.6761 21.4039 41.6761 19.6959C41.6761 17.9879 41.2001 16.6019 40.2481 15.5379C39.3241 14.4739 38.1761 13.9419 36.8041 13.9419C35.4041 13.9419 34.2281 14.4739 33.2761 15.5379C32.3521 16.6019 31.8901 17.9879 31.8901 19.6959Z" fill="#1B1F2B"/>
<path d="M51.7289 22.7619V8.64988H58.4489V21.2919C58.4489 24.0639 59.4709 25.4499 61.5149 25.4499C62.4109 25.4499 63.2789 25.2119 64.1189 24.7359C64.9589 24.2319 65.7009 23.4059 66.3449 22.2579V8.64988H73.0649V23.2239C73.0649 23.8959 73.1629 24.3719 73.3589 24.6519C73.5829 24.9319 73.9609 25.0859 74.4929 25.1139V30.6999C73.8489 30.8119 73.3029 30.8959 72.8549 30.9519C72.4069 31.0079 72.0009 31.0359 71.6369 31.0359C69.2289 31.0359 67.8569 30.0979 67.5209 28.2219L67.3949 26.8779C66.3869 28.3339 65.1269 29.4119 63.6149 30.1119C62.1309 30.7839 60.4649 31.1199 58.6169 31.1199C56.3769 31.1199 54.6689 30.4059 53.4929 28.9779C52.3169 27.5499 51.7289 25.4779 51.7289 22.7619Z" fill="#1B1F2B"/>
<path d="M92.2569 14.4039C90.6329 14.4319 89.1629 14.6979 87.8469 15.2019C86.5309 15.7059 85.5789 16.4619 84.9909 17.4699V30.6999H78.2709V8.64988H84.4449V13.1019C85.2009 11.6179 86.1809 10.4559 87.3849 9.61588C88.5889 8.77588 89.8489 8.34188 91.1649 8.31388C91.7249 8.31388 92.0889 8.32788 92.2569 8.35588V14.4039Z" fill="#1B1F2B"/>
<path d="M116.92 6.92788H107.848V30.6999H100.96V6.92788H91.8458V0.879883H116.92V6.92788Z" fill="#1B1F2B"/>
<path d="M126.382 31.1199C123.862 31.1199 121.72 30.5879 119.956 29.5239C118.22 28.4599 116.89 27.0599 115.966 25.3239C115.042 23.5879 114.58 21.7119 114.58 19.6959C114.58 17.6519 115.042 15.7619 115.966 14.0259C116.89 12.2899 118.234 10.8899 119.998 9.82588C121.762 8.76188 123.89 8.22988 126.382 8.22988C128.874 8.22988 131.002 8.76188 132.766 9.82588C134.53 10.8899 135.874 12.2899 136.798 14.0259C137.722 15.7619 138.184 17.6519 138.184 19.6959C138.184 21.7119 137.722 23.5879 136.798 25.3239C135.874 27.0599 134.53 28.4599 132.766 29.5239C131.002 30.5879 128.874 31.1199 126.382 31.1199ZM121.468 19.6959C121.468 21.4039 121.93 22.7899 122.854 23.8539C123.806 24.9179 124.982 25.4499 126.382 25.4499C127.754 25.4499 128.902 24.9179 129.826 23.8539C130.778 22.7899 131.254 21.4039 131.254 19.6959C131.254 17.9879 130.778 16.6019 129.826 15.5379C128.902 14.4739 127.754 13.9419 126.382 13.9419C124.982 13.9419 123.806 14.4739 122.854 15.5379C121.93 16.6019 121.468 17.9879 121.468 19.6959Z" fill="#1B1F2B"/>
<path d="M141.307 22.7619V8.64988H148.027V21.2919C148.027 24.0639 149.049 25.4499 151.093 25.4499C151.989 25.4499 152.857 25.2119 153.697 24.7359C154.537 24.2319 155.279 23.4059 155.923 22.2579V8.64988H162.643V23.2239C162.643 23.8959 162.741 24.3719 162.937 24.6519C163.161 24.9319 163.539 25.0859 164.071 25.1139V30.6999C163.427 30.8119 162.881 30.8959 162.433 30.9519C161.985 31.0079 161.579 31.0359 161.215 31.0359C158.807 31.0359 157.435 30.0979 157.099 28.2219L156.973 26.8779C155.965 28.3339 154.705 29.4119 153.193 30.1119C151.709 30.7839 150.043 31.1199 148.195 31.1199C145.955 31.1199 144.247 30.4059 143.071 28.9779C141.895 27.5499 141.307 25.4779 141.307 22.7619Z" fill="#1B1F2B"/>
<path d="M181.835 14.4039C180.211 14.4319 178.741 14.6979 177.425 15.2019C176.109 15.7059 175.157 16.4619 174.569 17.4699V30.6999H167.849V8.64988H174.023V13.1019C174.779 11.6179 175.759 10.4559 176.963 9.61588C178.167 8.77588 179.427 8.34188 180.743 8.31388C181.303 8.31388 181.667 8.32788 181.835 8.35588V14.4039Z" fill="#1B1F2B"/>
<path d="M374.893 10.3242H370.322V23H368.457V10.3242H363.896V8.78125H374.893V10.3242ZM379.473 20.3535L381.934 12.4336H383.867L379.619 24.6309C378.962 26.3887 377.917 27.2676 376.484 27.2676L376.143 27.2383L375.469 27.1113V25.6465L375.957 25.6855C376.569 25.6855 377.044 25.5618 377.383 25.3145C377.728 25.0671 378.011 24.6146 378.232 23.957L378.633 22.8828L374.863 12.4336H376.836L379.473 20.3535ZM394.414 17.834C394.414 19.4421 394.046 20.7376 393.311 21.7207C392.575 22.7038 391.579 23.1953 390.322 23.1953C389.04 23.1953 388.031 22.7884 387.295 21.9746V27.0625H385.488V12.4336H387.139L387.227 13.6055C387.962 12.694 388.984 12.2383 390.293 12.2383C391.562 12.2383 392.565 12.7168 393.301 13.6738C394.043 14.6309 394.414 15.9622 394.414 17.668V17.834ZM392.607 17.6289C392.607 16.4375 392.354 15.4967 391.846 14.8066C391.338 14.1165 390.641 13.7715 389.756 13.7715C388.662 13.7715 387.842 14.2565 387.295 15.2266V20.2754C387.835 21.2389 388.662 21.7207 389.775 21.7207C390.641 21.7207 391.328 21.3789 391.836 20.6953C392.35 20.0052 392.607 18.9831 392.607 17.6289ZM398.691 16.0762H401.436C402.633 16.0892 403.581 16.4017 404.277 17.0137C404.974 17.6257 405.322 18.4557 405.322 19.5039C405.322 20.5586 404.964 21.4049 404.248 22.043C403.532 22.681 402.568 23 401.357 23H396.885V12.4336H398.691V16.0762ZM409.092 23H407.275V12.4336H409.092V23ZM398.691 17.5508V21.5254H401.377C402.054 21.5254 402.578 21.3529 402.949 21.0078C403.32 20.6562 403.506 20.1777 403.506 19.5723C403.506 18.9863 403.324 18.5078 402.959 18.1367C402.601 17.7591 402.096 17.5638 401.445 17.5508H398.691Z" fill="#1B1F2B"/>
<path d="M473.527 18.4883C473.352 19.9922 472.795 21.1543 471.857 21.9746C470.926 22.7884 469.686 23.1953 468.137 23.1953C466.457 23.1953 465.109 22.5931 464.094 21.3887C463.085 20.1842 462.58 18.5729 462.58 16.5547V15.1875C462.58 13.8659 462.814 12.7038 463.283 11.7012C463.758 10.6986 464.429 9.93034 465.295 9.39648C466.161 8.85612 467.163 8.58594 468.303 8.58594C469.813 8.58594 471.024 9.00911 471.936 9.85547C472.847 10.6953 473.378 11.8607 473.527 13.3516H471.643C471.48 12.2188 471.125 11.3984 470.578 10.8906C470.038 10.3828 469.279 10.1289 468.303 10.1289C467.105 10.1289 466.164 10.5716 465.48 11.457C464.803 12.3424 464.465 13.6022 464.465 15.2363V16.6133C464.465 18.1562 464.787 19.3835 465.432 20.2949C466.076 21.2064 466.978 21.6621 468.137 21.6621C469.178 21.6621 469.976 21.4277 470.529 20.959C471.089 20.4837 471.46 19.6602 471.643 18.4883H473.527ZM475.334 17.6191C475.334 16.584 475.536 15.653 475.939 14.8262C476.35 13.9993 476.916 13.3613 477.639 12.9121C478.368 12.4629 479.198 12.2383 480.129 12.2383C481.568 12.2383 482.73 12.7363 483.615 13.7324C484.507 14.7285 484.953 16.0534 484.953 17.707V17.834C484.953 18.8626 484.755 19.7871 484.357 20.6074C483.967 21.4212 483.404 22.056 482.668 22.5117C481.939 22.9674 481.099 23.1953 480.148 23.1953C478.716 23.1953 477.554 22.6973 476.662 21.7012C475.777 20.7051 475.334 19.3867 475.334 17.7461V17.6191ZM477.15 17.834C477.15 19.0059 477.421 19.9466 477.961 20.6562C478.508 21.3659 479.237 21.7207 480.148 21.7207C481.066 21.7207 481.796 21.3626 482.336 20.6465C482.876 19.9238 483.146 18.9147 483.146 17.6191C483.146 16.4603 482.87 15.5228 482.316 14.8066C481.77 14.084 481.04 13.7227 480.129 13.7227C479.237 13.7227 478.518 14.0775 477.971 14.7871C477.424 15.4967 477.15 16.5124 477.15 17.834ZM493.029 15.3242C493.029 14.8294 492.84 14.4388 492.463 14.1523C492.085 13.8594 491.568 13.7129 490.91 13.7129C490.272 13.7129 489.738 13.8789 489.309 14.2109C488.885 14.543 488.674 14.9336 488.674 15.3828H486.877C486.877 14.4648 487.261 13.7129 488.029 13.127C488.798 12.541 489.758 12.248 490.91 12.248C492.147 12.248 493.111 12.515 493.801 13.0488C494.491 13.5762 494.836 14.3314 494.836 15.3145C494.836 15.7897 494.693 16.2259 494.406 16.623C494.12 17.0202 493.713 17.3359 493.186 17.5703C494.416 17.987 495.031 18.8073 495.031 20.0312C495.031 21.0013 494.657 21.7695 493.908 22.3359C493.16 22.9023 492.16 23.1855 490.91 23.1855C489.693 23.1855 488.687 22.8893 487.893 22.2969C487.105 21.6979 486.711 20.8906 486.711 19.875H488.508C488.508 20.3893 488.736 20.832 489.191 21.2031C489.654 21.5677 490.227 21.75 490.91 21.75C491.6 21.75 492.157 21.5905 492.58 21.2715C493.003 20.9525 493.215 20.5391 493.215 20.0312C493.215 19.4388 493.036 19.0156 492.678 18.7617C492.326 18.5013 491.776 18.3711 491.027 18.3711H489.221V16.8477H491.184C492.414 16.8151 493.029 16.3073 493.029 15.3242ZM497.287 21.5254L497.912 20.7539C498.615 19.8424 499.016 18.4753 499.113 16.6523L499.279 12.4336H506.086V21.5254H507.443V26.1055H505.637V23H498.264V26.1055H496.457L496.467 21.5254H497.287ZM499.426 21.5254H504.279V14.1035H501.027L500.92 16.623C500.809 18.7259 500.311 20.36 499.426 21.5254ZM515.969 23C515.865 22.7917 515.78 22.4206 515.715 21.8867C514.875 22.7591 513.872 23.1953 512.707 23.1953C511.665 23.1953 510.809 22.9023 510.139 22.3164C509.475 21.724 509.143 20.9753 509.143 20.0703C509.143 18.9701 509.559 18.1172 510.393 17.5117C511.232 16.8997 512.411 16.5938 513.928 16.5938H515.686V15.7637C515.686 15.1322 515.497 14.6309 515.119 14.2598C514.742 13.8822 514.185 13.6934 513.449 13.6934C512.805 13.6934 512.264 13.8561 511.828 14.1816C511.392 14.5072 511.174 14.901 511.174 15.3633H509.357C509.357 14.8359 509.543 14.3281 509.914 13.8398C510.292 13.3451 510.799 12.9544 511.438 12.668C512.082 12.3815 512.788 12.2383 513.557 12.2383C514.774 12.2383 515.728 12.5443 516.418 13.1562C517.108 13.7617 517.466 14.5983 517.492 15.666V20.5293C517.492 21.4993 517.616 22.2708 517.863 22.8438V23H515.969ZM512.971 21.623C513.537 21.623 514.074 21.4766 514.582 21.1836C515.09 20.8906 515.458 20.5098 515.686 20.041V17.873H514.27C512.056 17.873 510.949 18.5208 510.949 19.8164C510.949 20.3828 511.138 20.8255 511.516 21.1445C511.893 21.4635 512.378 21.623 512.971 21.623ZM528.02 13.8984H524.475V23H522.668V13.8984H519.191V12.4336H528.02V13.8984ZM531.75 16.0762H534.494C535.692 16.0892 536.639 16.4017 537.336 17.0137C538.033 17.6257 538.381 18.4557 538.381 19.5039C538.381 20.5586 538.023 21.4049 537.307 22.043C536.59 22.681 535.627 23 534.416 23H529.943V12.4336H531.75V16.0762ZM531.75 17.5508V21.5254H534.436C535.113 21.5254 535.637 21.3529 536.008 21.0078C536.379 20.6562 536.564 20.1777 536.564 19.5723C536.564 18.9863 536.382 18.5078 536.018 18.1367C535.66 17.7591 535.155 17.5638 534.504 17.5508H531.75ZM553.449 13.8984H549.904V23H548.098V13.8984H544.621V12.4336H553.449V13.8984ZM558.781 20.3535L561.242 12.4336H563.176L558.928 24.6309C558.27 26.3887 557.225 27.2676 555.793 27.2676L555.451 27.2383L554.777 27.1113V25.6465L555.266 25.6855C555.878 25.6855 556.353 25.5618 556.691 25.3145C557.036 25.0671 557.32 24.6146 557.541 23.957L557.941 22.8828L554.172 12.4336H556.145L558.781 20.3535ZM573.723 17.834C573.723 19.4421 573.355 20.7376 572.619 21.7207C571.883 22.7038 570.887 23.1953 569.631 23.1953C568.348 23.1953 567.339 22.7884 566.604 21.9746V27.0625H564.797V12.4336H566.447L566.535 13.6055C567.271 12.694 568.293 12.2383 569.602 12.2383C570.871 12.2383 571.874 12.7168 572.609 13.6738C573.352 14.6309 573.723 15.9622 573.723 17.668V17.834ZM571.916 17.6289C571.916 16.4375 571.662 15.4967 571.154 14.8066C570.646 14.1165 569.95 13.7715 569.064 13.7715C567.971 13.7715 567.15 14.2565 566.604 15.2266V20.2754C567.144 21.2389 567.971 21.7207 569.084 21.7207C569.95 21.7207 570.637 21.3789 571.145 20.6953C571.659 20.0052 571.916 18.9831 571.916 17.6289Z" fill="#1B1F2B"/>
<path d="M638.006 16.3496C638.006 17.7428 637.771 18.9603 637.303 20.002C636.834 21.0371 636.17 21.8281 635.311 22.375C634.451 22.9219 633.449 23.1953 632.303 23.1953C631.183 23.1953 630.19 22.9219 629.324 22.375C628.458 21.8216 627.785 21.0371 627.303 20.0215C626.827 18.9993 626.583 17.8177 626.57 16.4766V15.4512C626.57 14.084 626.808 12.8763 627.283 11.8281C627.758 10.7799 628.429 9.97917 629.295 9.42578C630.167 8.86589 631.163 8.58594 632.283 8.58594C633.423 8.58594 634.425 8.86263 635.291 9.41602C636.163 9.96289 636.834 10.7604 637.303 11.8086C637.771 12.8503 638.006 14.0645 638.006 15.4512V16.3496ZM636.141 15.4316C636.141 13.7454 635.802 12.4531 635.125 11.5547C634.448 10.6497 633.501 10.1973 632.283 10.1973C631.098 10.1973 630.164 10.6497 629.48 11.5547C628.803 12.4531 628.455 13.7031 628.436 15.3047V16.3496C628.436 17.9837 628.777 19.2695 629.461 20.207C630.151 21.138 631.098 21.6035 632.303 21.6035C633.514 21.6035 634.451 21.1641 635.115 20.2852C635.779 19.3997 636.121 18.1335 636.141 16.4863V15.4316ZM648.387 13.8984H644.842V23H643.035V13.8984H639.559V12.4336H648.387V13.8984ZM655.955 15.3242C655.955 14.8294 655.766 14.4388 655.389 14.1523C655.011 13.8594 654.493 13.7129 653.836 13.7129C653.198 13.7129 652.664 13.8789 652.234 14.2109C651.811 14.543 651.6 14.9336 651.6 15.3828H649.803C649.803 14.4648 650.187 13.7129 650.955 13.127C651.723 12.541 652.684 12.248 653.836 12.248C655.073 12.248 656.036 12.515 656.727 13.0488C657.417 13.5762 657.762 14.3314 657.762 15.3145C657.762 15.7897 657.618 16.2259 657.332 16.623C657.046 17.0202 656.639 17.3359 656.111 17.5703C657.342 17.987 657.957 18.8073 657.957 20.0312C657.957 21.0013 657.583 21.7695 656.834 22.3359C656.085 22.9023 655.086 23.1855 653.836 23.1855C652.618 23.1855 651.613 22.8893 650.818 22.2969C650.031 21.6979 649.637 20.8906 649.637 19.875H651.434C651.434 20.3893 651.661 20.832 652.117 21.2031C652.579 21.5677 653.152 21.75 653.836 21.75C654.526 21.75 655.083 21.5905 655.506 21.2715C655.929 20.9525 656.141 20.5391 656.141 20.0312C656.141 19.4388 655.962 19.0156 655.604 18.7617C655.252 18.5013 654.702 18.3711 653.953 18.3711H652.146V16.8477H654.109C655.34 16.8151 655.955 16.3073 655.955 15.3242ZM662.273 16.0762H665.018C666.215 16.0892 667.163 16.4017 667.859 17.0137C668.556 17.6257 668.904 18.4557 668.904 19.5039C668.904 20.5586 668.546 21.4049 667.83 22.043C667.114 22.681 666.15 23 664.939 23H660.467V12.4336H662.273V16.0762ZM672.674 23H670.857V12.4336H672.674V23ZM662.273 17.5508V21.5254H664.959C665.636 21.5254 666.16 21.3529 666.531 21.0078C666.902 20.6562 667.088 20.1777 667.088 19.5723C667.088 18.9863 666.906 18.5078 666.541 18.1367C666.183 17.7591 665.678 17.5638 665.027 17.5508H662.273ZM675.994 23V12.4336H680.115C681.521 12.4336 682.599 12.681 683.348 13.1758C684.103 13.6641 684.48 14.3835 684.48 15.334C684.48 15.8223 684.334 16.265 684.041 16.6621C683.748 17.0527 683.315 17.3522 682.742 17.5605C683.38 17.7103 683.891 18.0033 684.275 18.4395C684.666 18.8757 684.861 19.3965 684.861 20.002C684.861 20.972 684.503 21.7142 683.787 22.2285C683.077 22.7428 682.072 23 680.77 23H675.994ZM677.801 18.3613V21.5449H680.789C681.544 21.5449 682.107 21.4049 682.479 21.125C682.856 20.8451 683.045 20.4512 683.045 19.9434C683.045 18.8887 682.27 18.3613 680.721 18.3613H677.801ZM677.801 16.916H680.135C681.827 16.916 682.674 16.4212 682.674 15.4316C682.674 14.4421 681.873 13.931 680.271 13.8984H677.801V16.916ZM689.227 16.0762H691.971C693.169 16.0892 694.116 16.4017 694.812 17.0137C695.509 17.6257 695.857 18.4557 695.857 19.5039C695.857 20.5586 695.499 21.4049 694.783 22.043C694.067 22.681 693.104 23 691.893 23H687.42V12.4336H689.227V16.0762ZM699.627 23H697.811V12.4336H699.627V23ZM689.227 17.5508V21.5254H691.912C692.589 21.5254 693.113 21.3529 693.484 21.0078C693.855 20.6562 694.041 20.1777 694.041 19.5723C694.041 18.9863 693.859 18.5078 693.494 18.1367C693.136 17.7591 692.632 17.5638 691.98 17.5508H689.227Z" fill="#1B1F2B"/>
<path d="M762.033 8.78125H763.908V23H762.033V12.043L755.031 23H753.146V8.78125H755.031V19.7383L762.033 8.78125ZM771.281 21.7207C771.926 21.7207 772.489 21.5254 772.971 21.1348C773.452 20.7441 773.719 20.2559 773.771 19.6699H775.48C775.448 20.2754 775.24 20.8516 774.855 21.3984C774.471 21.9453 773.957 22.3815 773.312 22.707C772.674 23.0326 771.997 23.1953 771.281 23.1953C769.842 23.1953 768.697 22.7168 767.844 21.7598C766.997 20.7962 766.574 19.4811 766.574 17.8145V17.5117C766.574 16.4831 766.763 15.5684 767.141 14.7676C767.518 13.9668 768.059 13.3451 768.762 12.9023C769.471 12.4596 770.308 12.2383 771.271 12.2383C772.456 12.2383 773.439 12.5931 774.221 13.3027C775.008 14.0124 775.428 14.9336 775.48 16.0664H773.771C773.719 15.3828 773.459 14.8229 772.99 14.3867C772.528 13.944 771.955 13.7227 771.271 13.7227C770.354 13.7227 769.641 14.0547 769.133 14.7188C768.632 15.3763 768.381 16.3301 768.381 17.5801V17.9219C768.381 19.1393 768.632 20.0768 769.133 20.7344C769.634 21.3919 770.35 21.7207 771.281 21.7207ZM785.363 13.8984H781.818V23H780.012V13.8984H776.535V12.4336H785.363V13.8984ZM786.232 17.6191C786.232 16.584 786.434 15.653 786.838 14.8262C787.248 13.9993 787.814 13.3613 788.537 12.9121C789.266 12.4629 790.096 12.2383 791.027 12.2383C792.466 12.2383 793.628 12.7363 794.514 13.7324C795.406 14.7285 795.852 16.0534 795.852 17.707V17.834C795.852 18.8626 795.653 19.7871 795.256 20.6074C794.865 21.4212 794.302 22.056 793.566 22.5117C792.837 22.9674 791.997 23.1953 791.047 23.1953C789.615 23.1953 788.452 22.6973 787.561 21.7012C786.675 20.7051 786.232 19.3867 786.232 17.7461V17.6191ZM788.049 17.834C788.049 19.0059 788.319 19.9466 788.859 20.6562C789.406 21.3659 790.135 21.7207 791.047 21.7207C791.965 21.7207 792.694 21.3626 793.234 20.6465C793.775 19.9238 794.045 18.9147 794.045 17.6191C794.045 16.4603 793.768 15.5228 793.215 14.8066C792.668 14.084 791.939 13.7227 791.027 13.7227C790.135 13.7227 789.416 14.0775 788.869 14.7871C788.322 15.4967 788.049 16.5124 788.049 17.834ZM807.043 17.834C807.043 19.4421 806.675 20.7376 805.939 21.7207C805.204 22.7038 804.208 23.1953 802.951 23.1953C801.669 23.1953 800.66 22.7884 799.924 21.9746V27.0625H798.117V12.4336H799.768L799.855 13.6055C800.591 12.694 801.613 12.2383 802.922 12.2383C804.191 12.2383 805.194 12.7168 805.93 13.6738C806.672 14.6309 807.043 15.9622 807.043 17.668V17.834ZM805.236 17.6289C805.236 16.4375 804.982 15.4967 804.475 14.8066C803.967 14.1165 803.27 13.7715 802.385 13.7715C801.291 13.7715 800.471 14.2565 799.924 15.2266V20.2754C800.464 21.2389 801.291 21.7207 802.404 21.7207C803.27 21.7207 803.957 21.3789 804.465 20.6953C804.979 20.0052 805.236 18.9831 805.236 17.6289ZM816.184 12.4336H817.99V23H816.184V15.2949L811.311 23H809.504V12.4336H811.311V20.1484L816.184 12.4336ZM827.727 12.4336H829.533V23H827.727V15.2949L822.854 23H821.047V12.4336H822.854V20.1484L827.727 12.4336Z" fill="#1B1F2B"/>
<line x1="751.418" y1="29.5" x2="831.418" y2="29.5" stroke="#1B1F2B"/>
<path d="M1019.54 15.373H1023.51V17.082H1019.54V21.5742H1017.73V17.082H1013.76V15.373H1017.73V11.2227H1019.54V15.373ZM1034.71 9.79688L1028.82 23H1026.93L1032.79 10.2656H1025.1V8.78125H1034.71V9.79688ZM1048.64 16.75C1048.27 17.1992 1047.81 17.5605 1047.29 17.834C1046.77 18.1074 1046.19 18.2441 1045.57 18.2441C1044.75 18.2441 1044.03 18.0423 1043.42 17.6387C1042.81 17.235 1042.35 16.6686 1042.01 15.9395C1041.68 15.2038 1041.52 14.3932 1041.52 13.5078C1041.52 12.5573 1041.69 11.7012 1042.05 10.9395C1042.42 10.1777 1042.93 9.59505 1043.6 9.19141C1044.26 8.78776 1045.03 8.58594 1045.92 8.58594C1047.33 8.58594 1048.43 9.11328 1049.24 10.168C1050.05 11.2161 1050.46 12.6484 1050.46 14.4648V14.9922C1050.46 17.7591 1049.91 19.7806 1048.82 21.0566C1047.73 22.3262 1046.08 22.9772 1043.87 23.0098H1043.52V21.4863H1043.9C1045.39 21.4603 1046.54 21.0729 1047.34 20.3242C1048.14 19.569 1048.57 18.3776 1048.64 16.75ZM1045.86 16.75C1046.47 16.75 1047.02 16.5645 1047.53 16.1934C1048.05 15.8223 1048.42 15.3633 1048.65 14.8164V14.0938C1048.65 12.9089 1048.4 11.9453 1047.88 11.2031C1047.37 10.4609 1046.72 10.0898 1045.93 10.0898C1045.14 10.0898 1044.5 10.3958 1044.02 11.0078C1043.53 11.6133 1043.29 12.4141 1043.29 13.4102C1043.29 14.3802 1043.52 15.181 1043.99 15.8125C1044.46 16.4375 1045.08 16.75 1045.86 16.75ZM1059.88 16.75C1059.5 17.1992 1059.04 17.5605 1058.52 17.834C1058 18.1074 1057.42 18.2441 1056.8 18.2441C1055.98 18.2441 1055.26 18.0423 1054.65 17.6387C1054.04 17.235 1053.58 16.6686 1053.24 15.9395C1052.91 15.2038 1052.75 14.3932 1052.75 13.5078C1052.75 12.5573 1052.93 11.7012 1053.28 10.9395C1053.65 10.1777 1054.16 9.59505 1054.83 9.19141C1055.49 8.78776 1056.26 8.58594 1057.15 8.58594C1058.56 8.58594 1059.66 9.11328 1060.47 10.168C1061.28 11.2161 1061.69 12.6484 1061.69 14.4648V14.9922C1061.69 17.7591 1061.14 19.7806 1060.05 21.0566C1058.96 22.3262 1057.31 22.9772 1055.1 23.0098H1054.75V21.4863H1055.13C1056.62 21.4603 1057.77 21.0729 1058.57 20.3242C1059.37 19.569 1059.8 18.3776 1059.88 16.75ZM1057.09 16.75C1057.7 16.75 1058.25 16.5645 1058.76 16.1934C1059.28 15.8223 1059.65 15.3633 1059.88 14.8164V14.0938C1059.88 12.9089 1059.63 11.9453 1059.11 11.2031C1058.6 10.4609 1057.95 10.0898 1057.16 10.0898C1056.37 10.0898 1055.73 10.3958 1055.25 11.0078C1054.76 11.6133 1054.52 12.4141 1054.52 13.4102C1054.52 14.3802 1054.75 15.181 1055.22 15.8125C1055.69 16.4375 1056.31 16.75 1057.09 16.75ZM1071.11 16.75C1070.73 17.1992 1070.28 17.5605 1069.75 17.834C1069.23 18.1074 1068.65 18.2441 1068.03 18.2441C1067.21 18.2441 1066.49 18.0423 1065.88 17.6387C1065.28 17.235 1064.81 16.6686 1064.47 15.9395C1064.14 15.2038 1063.98 14.3932 1063.98 13.5078C1063.98 12.5573 1064.16 11.7012 1064.51 10.9395C1064.88 10.1777 1065.39 9.59505 1066.06 9.19141C1066.72 8.78776 1067.5 8.58594 1068.38 8.58594C1069.79 8.58594 1070.89 9.11328 1071.7 10.168C1072.51 11.2161 1072.92 12.6484 1072.92 14.4648V14.9922C1072.92 17.7591 1072.38 19.7806 1071.28 21.0566C1070.19 22.3262 1068.54 22.9772 1066.33 23.0098H1065.98V21.4863H1066.36C1067.85 21.4603 1069 21.0729 1069.8 20.3242C1070.6 19.569 1071.03 18.3776 1071.11 16.75ZM1068.32 16.75C1068.93 16.75 1069.48 16.5645 1069.99 16.1934C1070.51 15.8223 1070.88 15.3633 1071.12 14.8164V14.0938C1071.12 12.9089 1070.86 11.9453 1070.34 11.2031C1069.83 10.4609 1069.18 10.0898 1068.39 10.0898C1067.6 10.0898 1066.96 10.3958 1066.48 11.0078C1065.99 11.6133 1065.75 12.4141 1065.75 13.4102C1065.75 14.3802 1065.99 15.181 1066.45 15.8125C1066.92 16.4375 1067.54 16.75 1068.32 16.75ZM1087.3 16.75C1086.92 17.1992 1086.47 17.5605 1085.94 17.834C1085.42 18.1074 1084.85 18.2441 1084.22 18.2441C1083.4 18.2441 1082.68 18.0423 1082.07 17.6387C1081.47 17.235 1081 16.6686 1080.67 15.9395C1080.33 15.2038 1080.17 14.3932 1080.17 13.5078C1080.17 12.5573 1080.35 11.7012 1080.71 10.9395C1081.07 10.1777 1081.58 9.59505 1082.25 9.19141C1082.91 8.78776 1083.69 8.58594 1084.57 8.58594C1085.98 8.58594 1087.09 9.11328 1087.89 10.168C1088.71 11.2161 1089.11 12.6484 1089.11 14.4648V14.9922C1089.11 17.7591 1088.57 19.7806 1087.47 21.0566C1086.38 22.3262 1084.73 22.9772 1082.52 23.0098H1082.17V21.4863H1082.55C1084.04 21.4603 1085.19 21.0729 1085.99 20.3242C1086.79 19.569 1087.23 18.3776 1087.3 16.75ZM1084.51 16.75C1085.12 16.75 1085.68 16.5645 1086.18 16.1934C1086.7 15.8223 1087.07 15.3633 1087.31 14.8164V14.0938C1087.31 12.9089 1087.05 11.9453 1086.54 11.2031C1086.02 10.4609 1085.37 10.0898 1084.58 10.0898C1083.79 10.0898 1083.15 10.3958 1082.67 11.0078C1082.19 11.6133 1081.95 12.4141 1081.95 13.4102C1081.95 14.3802 1082.18 15.181 1082.64 15.8125C1083.11 16.4375 1083.73 16.75 1084.51 16.75ZM1098.53 16.75C1098.15 17.1992 1097.7 17.5605 1097.17 17.834C1096.65 18.1074 1096.08 18.2441 1095.45 18.2441C1094.63 18.2441 1093.91 18.0423 1093.3 17.6387C1092.7 17.235 1092.23 16.6686 1091.9 15.9395C1091.56 15.2038 1091.4 14.3932 1091.4 13.5078C1091.4 12.5573 1091.58 11.7012 1091.94 10.9395C1092.3 10.1777 1092.81 9.59505 1093.48 9.19141C1094.14 8.78776 1094.92 8.58594 1095.8 8.58594C1097.21 8.58594 1098.32 9.11328 1099.12 10.168C1099.94 11.2161 1100.34 12.6484 1100.34 14.4648V14.9922C1100.34 17.7591 1099.8 19.7806 1098.7 21.0566C1097.61 22.3262 1095.96 22.9772 1093.75 23.0098H1093.4V21.4863H1093.78C1095.27 21.4603 1096.42 21.0729 1097.22 20.3242C1098.02 19.569 1098.46 18.3776 1098.53 16.75ZM1095.74 16.75C1096.35 16.75 1096.91 16.5645 1097.41 16.1934C1097.93 15.8223 1098.3 15.3633 1098.54 14.8164V14.0938C1098.54 12.9089 1098.28 11.9453 1097.77 11.2031C1097.25 10.4609 1096.6 10.0898 1095.81 10.0898C1095.02 10.0898 1094.38 10.3958 1093.9 11.0078C1093.42 11.6133 1093.18 12.4141 1093.18 13.4102C1093.18 14.3802 1093.41 15.181 1093.87 15.8125C1094.34 16.4375 1094.96 16.75 1095.74 16.75ZM1109.76 16.75C1109.38 17.1992 1108.93 17.5605 1108.4 17.834C1107.88 18.1074 1107.31 18.2441 1106.68 18.2441C1105.86 18.2441 1105.15 18.0423 1104.53 17.6387C1103.93 17.235 1103.46 16.6686 1103.13 15.9395C1102.79 15.2038 1102.63 14.3932 1102.63 13.5078C1102.63 12.5573 1102.81 11.7012 1103.17 10.9395C1103.53 10.1777 1104.04 9.59505 1104.71 9.19141C1105.37 8.78776 1106.15 8.58594 1107.03 8.58594C1108.44 8.58594 1109.55 9.11328 1110.35 10.168C1111.17 11.2161 1111.57 12.6484 1111.57 14.4648V14.9922C1111.57 17.7591 1111.03 19.7806 1109.93 21.0566C1108.84 22.3262 1107.19 22.9772 1104.98 23.0098H1104.63V21.4863H1105.01C1106.5 21.4603 1107.65 21.0729 1108.45 20.3242C1109.25 19.569 1109.69 18.3776 1109.76 16.75ZM1106.97 16.75C1107.58 16.75 1108.14 16.5645 1108.64 16.1934C1109.16 15.8223 1109.53 15.3633 1109.77 14.8164V14.0938C1109.77 12.9089 1109.51 11.9453 1109 11.2031C1108.48 10.4609 1107.83 10.0898 1107.04 10.0898C1106.25 10.0898 1105.61 10.3958 1105.13 11.0078C1104.65 11.6133 1104.41 12.4141 1104.41 13.4102C1104.41 14.3802 1104.64 15.181 1105.1 15.8125C1105.57 16.4375 1106.19 16.75 1106.97 16.75ZM1125.95 16.75C1125.57 17.1992 1125.12 17.5605 1124.59 17.834C1124.07 18.1074 1123.5 18.2441 1122.87 18.2441C1122.05 18.2441 1121.34 18.0423 1120.72 17.6387C1120.12 17.235 1119.65 16.6686 1119.32 15.9395C1118.99 15.2038 1118.82 14.3932 1118.82 13.5078C1118.82 12.5573 1119 11.7012 1119.36 10.9395C1119.72 10.1777 1120.24 9.59505 1120.9 9.19141C1121.56 8.78776 1122.34 8.58594 1123.22 8.58594C1124.63 8.58594 1125.74 9.11328 1126.54 10.168C1127.36 11.2161 1127.77 12.6484 1127.77 14.4648V14.9922C1127.77 17.7591 1127.22 19.7806 1126.12 21.0566C1125.03 22.3262 1123.38 22.9772 1121.17 23.0098H1120.82V21.4863H1121.2C1122.69 21.4603 1123.84 21.0729 1124.64 20.3242C1125.44 19.569 1125.88 18.3776 1125.95 16.75ZM1123.17 16.75C1123.77 16.75 1124.33 16.5645 1124.84 16.1934C1125.35 15.8223 1125.72 15.3633 1125.96 14.8164V14.0938C1125.96 12.9089 1125.7 11.9453 1125.19 11.2031C1124.67 10.4609 1124.02 10.0898 1123.23 10.0898C1122.44 10.0898 1121.8 10.3958 1121.32 11.0078C1120.84 11.6133 1120.6 12.4141 1120.6 13.4102C1120.6 14.3802 1120.83 15.181 1121.29 15.8125C1121.76 16.4375 1122.38 16.75 1123.17 16.75ZM1137.18 16.75C1136.8 17.1992 1136.35 17.5605 1135.82 17.834C1135.3 18.1074 1134.73 18.2441 1134.1 18.2441C1133.28 18.2441 1132.57 18.0423 1131.96 17.6387C1131.35 17.235 1130.88 16.6686 1130.55 15.9395C1130.22 15.2038 1130.05 14.3932 1130.05 13.5078C1130.05 12.5573 1130.23 11.7012 1130.59 10.9395C1130.95 10.1777 1131.47 9.59505 1132.13 9.19141C1132.79 8.78776 1133.57 8.58594 1134.46 8.58594C1135.86 8.58594 1136.97 9.11328 1137.78 10.168C1138.59 11.2161 1139 12.6484 1139 14.4648V14.9922C1139 17.7591 1138.45 19.7806 1137.36 21.0566C1136.26 22.3262 1134.61 22.9772 1132.4 23.0098H1132.05V21.4863H1132.43C1133.92 21.4603 1135.07 21.0729 1135.87 20.3242C1136.67 19.569 1137.11 18.3776 1137.18 16.75ZM1134.4 16.75C1135 16.75 1135.56 16.5645 1136.07 16.1934C1136.58 15.8223 1136.96 15.3633 1137.19 14.8164V14.0938C1137.19 12.9089 1136.93 11.9453 1136.42 11.2031C1135.9 10.4609 1135.25 10.0898 1134.46 10.0898C1133.67 10.0898 1133.03 10.3958 1132.55 11.0078C1132.07 11.6133 1131.83 12.4141 1131.83 13.4102C1131.83 14.3802 1132.06 15.181 1132.52 15.8125C1132.99 16.4375 1133.62 16.75 1134.4 16.75ZM1153.37 16.75C1152.99 17.1992 1152.54 17.5605 1152.01 17.834C1151.49 18.1074 1150.92 18.2441 1150.29 18.2441C1149.47 18.2441 1148.76 18.0423 1148.15 17.6387C1147.54 17.235 1147.07 16.6686 1146.74 15.9395C1146.41 15.2038 1146.24 14.3932 1146.24 13.5078C1146.24 12.5573 1146.42 11.7012 1146.78 10.9395C1147.14 10.1777 1147.66 9.59505 1148.32 9.19141C1148.99 8.78776 1149.76 8.58594 1150.65 8.58594C1152.05 8.58594 1153.16 9.11328 1153.97 10.168C1154.78 11.2161 1155.19 12.6484 1155.19 14.4648V14.9922C1155.19 17.7591 1154.64 19.7806 1153.55 21.0566C1152.45 22.3262 1150.8 22.9772 1148.6 23.0098H1148.24V21.4863H1148.62C1150.12 21.4603 1151.26 21.0729 1152.06 20.3242C1152.86 19.569 1153.3 18.3776 1153.37 16.75ZM1150.59 16.75C1151.19 16.75 1151.75 16.5645 1152.26 16.1934C1152.77 15.8223 1153.15 15.3633 1153.38 14.8164V14.0938C1153.38 12.9089 1153.12 11.9453 1152.61 11.2031C1152.1 10.4609 1151.44 10.0898 1150.66 10.0898C1149.86 10.0898 1149.22 10.3958 1148.74 11.0078C1148.26 11.6133 1148.02 12.4141 1148.02 13.4102C1148.02 14.3802 1148.25 15.181 1148.71 15.8125C1149.18 16.4375 1149.81 16.75 1150.59 16.75ZM1164.6 16.75C1164.22 17.1992 1163.77 17.5605 1163.24 17.834C1162.72 18.1074 1162.15 18.2441 1161.53 18.2441C1160.71 18.2441 1159.99 18.0423 1159.38 17.6387C1158.77 17.235 1158.3 16.6686 1157.97 15.9395C1157.64 15.2038 1157.47 14.3932 1157.47 13.5078C1157.47 12.5573 1157.65 11.7012 1158.01 10.9395C1158.37 10.1777 1158.89 9.59505 1159.55 9.19141C1160.22 8.78776 1160.99 8.58594 1161.88 8.58594C1163.28 8.58594 1164.39 9.11328 1165.2 10.168C1166.01 11.2161 1166.42 12.6484 1166.42 14.4648V14.9922C1166.42 17.7591 1165.87 19.7806 1164.78 21.0566C1163.68 22.3262 1162.03 22.9772 1159.83 23.0098H1159.47V21.4863H1159.86C1161.35 21.4603 1162.49 21.0729 1163.29 20.3242C1164.09 19.569 1164.53 18.3776 1164.6 16.75ZM1161.82 16.75C1162.42 16.75 1162.98 16.5645 1163.49 16.1934C1164 15.8223 1164.38 15.3633 1164.61 14.8164V14.0938C1164.61 12.9089 1164.35 11.9453 1163.84 11.2031C1163.33 10.4609 1162.67 10.0898 1161.89 10.0898C1161.09 10.0898 1160.45 10.3958 1159.97 11.0078C1159.49 11.6133 1159.25 12.4141 1159.25 13.4102C1159.25 14.3802 1159.48 15.181 1159.94 15.8125C1160.41 16.4375 1161.04 16.75 1161.82 16.75Z" fill="#1B1F2B"/>
</svg>
